# xmcd
#
# Track frame offsets:
#	150
#	15481
#	31185
#	44973
#	80844
#	121196
#	140783
#	165778
#	186253
#	198635
#	214937
#	231107
#	256635
#	268927
#	299858
#
# Disc length: 4509 seconds
#
# Revision: 1
# Processed by: cddbd v1.5.2PL0 Copyright (c) Steve Scherf et al.
# Submitted via: audiograbber 1.83.01
#
DISCID=e5119b0f
DTITLE=Albie Donnelly's Supercharge - Live and Loaded
DYEAR=2001
DGENRE=Blues
TTITLE0=Gangster of Love
TTITLE1=Choo Choo Ch'Boogie
TTITLE2=Natural Ball
TTITLE3=Personal Manager
TTITLE4=Comin' Home
TTITLE5=Save Your Love For Me
TTITLE6=Breakin' Up Someone's Home
TTITLE7=Don't Worry 'Bout A Thing
TTITLE8=Mellow Saxophone
TTITLE9=Won't Be Your Fool Anymore
TTITLE10=Boogie Woogie King
TTITLE11=Harlem Nocturne
TTITLE12=Rocket 88
TTITLE13=Happy Birthday Blues
TTITLE14=Hoochie Coochie Man
EXTD=
EXTT0=
EXTT1=
EXTT2=
EXTT3=
EXTT4=
EXTT5=
EXTT6=
EXTT7=
EXTT8=
EXTT9=
EXTT10=
EXTT11=
EXTT12=
EXTT13=
EXTT14=
PLAYORDER=
